<?xml version="1.0" encoding="utf-8"?>
<!-- Generator: Adobe Illustrator 24.0.0, SVG Export Plug-In . SVG Version: 6.00 Build 0)  -->
<svg version="1.1" id="图层_1" xmlns="http://www.w3.org/2000/svg" xmlns:xlink="http://www.w3.org/1999/xlink" x="0px" y="0px"
	 viewBox="0 0 765.35 510.24" style="enable-background:new 0 0 765.35 510.24;" xml:space="preserve">
<style type="text/css">
	.st0{fill:#1B3C99;}
	.st1{fill:#F19E10;}
	.st2{fill:#FCCE33;}
</style>
<path class="st0" d="M528.37,99.73c-4.88-3.75-11.09-4.98-17.03-3.39l-111.29,29.84c-8.71,2.34-14.68,10.27-14.54,19.27l0.76,47.89
	c-9.18-2.21-18.75-3.4-28.6-3.4c-0.06,0-0.11,0-0.17,0c-0.05,0-0.1,0-0.15,0c-0.8,0-1.6,0.02-2.4,0.03c-0.15,0-0.31,0-0.46,0.01
	c-8.65,0.2-17.14,1.28-25.43,3.26l0.76-47.78c0.15-9.01-5.83-16.94-14.55-19.28L203.99,96.34c-5.94-1.59-12.15-0.36-17.03,3.39
	c-4.88,3.74-7.68,9.42-7.68,15.58v306.12c0,7.3,3.5,14.27,9.35,18.64c4.05,3.02,8.97,4.6,13.93,4.6c2.22,0,4.44-0.32,6.6-0.96
	l87.48-26.06c16.71,9.62,35.39,15.08,54.7,16.03c0.05,0,0.09,0,0.14,0.01c0.92,0.04,1.84,0.08,2.77,0.11
	c0.66,0.02,1.32,0.02,1.98,0.03c0.38,0,0.75,0.02,1.12,0.02c0.05,0,0.09,0,0.14,0c0.06,0,0.12,0,0.18,0
	c22.12,0,42.88-5.92,60.78-16.26l87.72,26.12c7,2.09,14.68,0.73,20.53-3.64s9.35-11.33,9.35-18.64V115.31
	C536.05,109.15,533.25,103.47,528.37,99.73z M447.49,311.89c0,29.33-14.13,55.41-35.93,71.82l-4.5,3
	c-14.71,9.79-31.85,14.98-49.57,15.01c-0.29,0-0.57-0.01-0.86-0.01c-0.54,0-1.08-0.02-1.63-0.03c-48.3-1.42-87.16-41.14-87.16-89.78
	c0-49.48,40.21-89.73,89.66-89.82c13.39,0.02,26.27,2.92,38.3,8.63l4.28,2.03C428.28,247.9,447.49,277.69,447.49,311.89z
	 M211.4,131.58l86.16,23.1l-0.82,51.61c-36.44,21.11-61.02,60.54-61.02,105.6c0,31.13,11.74,59.58,31.01,81.15l-55.34,16.48V131.58z
	 M503.93,409.52l-55.34-16.48c19.27-21.57,31.01-50.01,31.01-81.15c0-45.06-24.57-84.49-61.02-105.6l-0.82-51.61l86.16-23.1V409.52z
	"/>
<path class="st1" d="M388.72,287.4c-1.38,3.99-3.92,8.06-7.51,12.06c-0.24,0.26-0.51,0.32-0.7,0.34c-0.19,0.02-0.48-0.02-0.73-0.26
	c-0.24-0.2-0.36-0.51-0.34-0.82c0.63-10.26-2.44-21.83-9.15-34.42c-5.56-10.46-13.27-18.63-22.92-24.32
	c-10.83-3.94-8.71,5.28-8.71,5.28c0.26,5.59-0.39,10.53-1.93,14.64c-1.87,5.03-4.57,9.7-8.01,13.89c-2.42,2.93-5.13,5.57-8.09,7.86
	c-7.17,5.5-13.09,12.68-17.09,20.7c-4.04,8.11-6.17,17.19-6.17,26.29c0,8.04,1.58,15.83,4.72,23.17c3.03,7.07,7.36,13.44,12.87,18.9
	c5.52,5.45,9.25,8.55,16.39,11.53c7.4,3.1,17.91,1.79,26,1.79c8.09,0,18.8,1.22,26.2-1.87c7.14-2.98,10.69-5.97,16.2-11.44
	c5.52-5.45,9.85-11.83,12.86-18.9c3.14-7.34,4.72-15.13,4.72-23.17c0-8.32-1.7-16.39-5.09-24.01c-3.32-7.46-8.08-14.07-14.13-19.63
	C398.11,285.03,391.62,280.11,388.72,287.4z"/>
<path class="st2" d="M366.44,348.09c-0.44-1-1.08-1.88-1.89-2.62l-0.66-0.61c-0.1-0.09-0.25-0.05-0.3,0.08l-0.3,0.85
	c-0.18,0.53-0.52,1.08-1,1.61c-0.03,0.03-0.07,0.04-0.09,0.05c-0.02,0-0.06,0-0.1-0.03c-0.03-0.03-0.05-0.07-0.05-0.11
	c0.08-1.37-0.33-2.92-1.22-4.6c-0.74-1.4-1.77-2.49-3.06-3.25l-0.94-0.55c-0.12-0.07-0.28,0.02-0.27,0.17l0.05,1.09
	c0.03,0.75-0.05,1.41-0.26,1.95c-0.25,0.67-0.61,1.29-1.07,1.85c-0.32,0.39-0.68,0.74-1.08,1.05c-0.96,0.74-1.75,1.69-2.28,2.77
	c-0.54,1.08-0.82,2.3-0.82,3.51c0,1.07,0.21,2.11,0.63,3.1c0.41,0.94,0.98,1.8,1.72,2.52c0.74,0.73,1.59,1.3,2.55,1.7
	c0.99,0.41,2.03,0.62,3.12,0.62s2.13-0.21,3.12-0.62c0.95-0.4,1.81-0.97,2.55-1.7c0.74-0.73,1.32-1.58,1.72-2.52
	c0.42-0.98,0.63-2.02,0.63-3.09C367.12,350.18,366.89,349.1,366.44,348.09z"/>
<path class="st2" d="M383.31,340.03c-0.86-0.54-0.8-1.81,0.12-2.24c2.57-1.2,6.47-3.86,8.55-9.45c3.27-8.8-1.76-15.46-26.28-18.61
	c-16.24-2.08-27.46,0.97-33.19,3.26c-2.86,1.15-4.8,3.81-5.03,6.88c-0.97,12.72-1.56,46.52,0,51.21c1.89,5.66,37.84,3.52,42.62,3.02
	c4.78-0.5,19.99-1.76,23.76-14.58C396.73,349.78,387.78,342.82,383.31,340.03z M364.76,340.53c3.9,2.15,11.1,7.33,8.49,15.34
	c-2.81,8.64-19.02,7.17-25.43,6.22c-1.5-0.22-2.61-1.5-2.61-3.02v-33.56c0-2.07,1.53-3.81,3.58-4.08c4.36-0.58,12.2-1.13,20.81,0.61
	c10.39,2.1-0.26,11.82-5.07,15.72C363.61,338.52,363.72,339.96,364.76,340.53z"/>
</svg>
